<svg xmlns="http://www.w3.org/2000/svg" width="1400" height="1400" viewBox="0 0 1400 1400" role="img">
  <defs>
    <pattern id="paperGrid" width="48" height="48" patternUnits="userSpaceOnUse">
      <path d="M48 0H0V48" fill="none" stroke="#d9d6cc" stroke-width="1" opacity="0.45"/>
    </pattern>
    <marker id="arrow" markerWidth="14" markerHeight="14" refX="11" refY="7" orient="auto">
      <path d="M2,2 L12,7 L2,12 Z" fill="#64748b"/>
    </marker>
    <style>
      .label { font-family: Inter, Arial, sans-serif; }
      .mono { font-family: Consolas, monospace; }
    </style>
  </defs>
  <rect width="1400" height="1400" fill="#f8f4ea"/>
  <rect width="1400" height="1400" fill="url(#paperGrid)" opacity="0.8"/>
  <text x="86" y="112" font-size="47" font-weight="800" fill="#0f172a" class="label">Frame Lab is where FRAME gets pressure-tested.</text>
  <text x="88" y="170" font-size="25" font-weight="450" fill="#475569" class="label">The schema should not grow just because one repo made it uncomfortable.</text>
  <circle cx="700" cy="680" r="360" fill="#fffaf1" stroke="#0f172a" stroke-width="5"/>
<path d="M700 325 C910 345, 1045 490, 1055 675" fill="none" stroke="#64748b" stroke-width="6" marker-end="url(#arrow)"/>
<path d="M1050 700 C1015 905, 875 1020, 710 1035" fill="none" stroke="#64748b" stroke-width="6" marker-end="url(#arrow)"/>
<path d="M675 1035 C455 1015, 335 860, 345 690" fill="none" stroke="#64748b" stroke-width="6" marker-end="url(#arrow)"/>
<path d="M350 655 C375 455, 520 335, 675 325" fill="none" stroke="#64748b" stroke-width="6" marker-end="url(#arrow)"/>
<rect x="530" y="290" width="340" height="115" rx="28" fill="#fffaf1" stroke="#cbd5e1" stroke-width="4"/>
<text x="564" y="348" class="label" font-size="38" font-weight="760" fill="#334155">pick fixture</text>
<text x="564" y="394" class="label" font-size="26" fill="#64748b">real project pressure</text><rect x="930" y="590" width="330" height="115" rx="28" fill="#fffaf1" stroke="#cbd5e1" stroke-width="4"/>
<text x="964" y="648" class="label" font-size="38" font-weight="760" fill="#334155">fit + score</text>
<text x="964" y="694" class="label" font-size="26" fill="#64748b">where it works</text><rect x="520" y="965" width="360" height="115" rx="28" fill="#fffaf1" stroke="#cbd5e1" stroke-width="4"/>
<text x="554" y="1023" class="label" font-size="38" font-weight="760" fill="#334155">investigate</text>
<text x="554" y="1069" class="label" font-size="26" fill="#64748b">check weak claims</text><rect x="130" y="590" width="350" height="115" rx="28" fill="#fffaf1" stroke="#cbd5e1" stroke-width="4"/>
<text x="164" y="648" class="label" font-size="38" font-weight="760" fill="#334155">adjust slowly</text>
<text x="164" y="694" class="label" font-size="26" fill="#64748b">only repeated pressure</text><text x="544" y="670" class="label" font-size="50" font-weight="800" fill="#0f172a">Frame Lab</text>
<text x="465" y="735" class="label" font-size="27" fill="#64748b">not vibes, repeated pressure</text>
  <text x="88" y="1288" font-size="38" font-weight="800" fill="#0f172a" class="label">The goal is useful structure without schema bloat.</text>
</svg>