<svg xmlns="http://www.w3.org/2000/svg" width="1400" height="1400" viewBox="0 0 1400 1400" role="img">
  <defs>
    <pattern id="paperGrid" width="48" height="48" patternUnits="userSpaceOnUse">
      <path d="M48 0H0V48" fill="none" stroke="#d9d6cc" stroke-width="1" opacity="0.45"/>
    </pattern>
    <marker id="arrow" markerWidth="14" markerHeight="14" refX="11" refY="7" orient="auto">
      <path d="M2,2 L12,7 L2,12 Z" fill="#64748b"/>
    </marker>
    <style>
      .label { font-family: Inter, Arial, sans-serif; }
      .mono { font-family: Consolas, monospace; }
    </style>
  </defs>
  <rect width="1400" height="1400" fill="#f8f4ea"/>
  <rect width="1400" height="1400" fill="url(#paperGrid)" opacity="0.8"/>
  <text x="86" y="112" font-size="47" font-weight="800" fill="#0f172a" class="label">Better-shaped context, not more context.</text>
  <text x="88" y="170" font-size="25" font-weight="450" fill="#475569" class="label">FRAME separates project truth so agents and developers can keep up.</text>
  <rect x="115" y="315" width="1170" height="760" rx="48" fill="#fffaf1" stroke="#cbd5e1" stroke-width="4"/>
<path d="M310 505 C455 385, 615 385, 700 505 C785 385, 945 385, 1090 505" fill="none" stroke="#94a3b8" stroke-width="4" opacity="0.55"/>
<path d="M310 760 C455 880, 615 880, 700 760 C785 880, 945 880, 1090 760" fill="none" stroke="#94a3b8" stroke-width="4" opacity="0.55"/>
<rect x="165" y="380" width="330" height="145" rx="28" fill="#ecfeff" stroke="#0891b2" stroke-width="4"/>
<text x="199" y="438" class="label" font-size="38" font-weight="760" fill="#334155">Facts</text>
<text x="199" y="484" class="label" font-size="26" fill="#64748b">what is true</text><rect x="535" y="380" width="330" height="145" rx="28" fill="#f0fdf4" stroke="#16a34a" stroke-width="4"/>
<text x="569" y="438" class="label" font-size="38" font-weight="760" fill="#334155">Rules</text>
<text x="569" y="484" class="label" font-size="26" fill="#64748b">what to obey</text><rect x="905" y="380" width="330" height="145" rx="28" fill="#f5f3ff" stroke="#7c3aed" stroke-width="4"/>
<text x="939" y="438" class="label" font-size="38" font-weight="760" fill="#334155">Map</text>
<text x="939" y="484" class="label" font-size="26" fill="#64748b">where to look</text><rect x="350" y="710" width="330" height="145" rx="28" fill="#fff7ed" stroke="#d97706" stroke-width="4"/>
<text x="384" y="768" class="label" font-size="38" font-weight="760" fill="#334155">Expect</text>
<text x="384" y="814" class="label" font-size="26" fill="#64748b">what should pass</text><rect x="720" y="710" width="330" height="145" rx="28" fill="#fff1f2" stroke="#e11d48" stroke-width="4"/>
<text x="754" y="768" class="label" font-size="38" font-weight="760" fill="#334155">Acts</text>
<text x="754" y="814" class="label" font-size="26" fill="#64748b">what changed</text>
<text x="283" y="1010" class="label" font-size="32" font-weight="750" fill="#0f172a">Not more docs. A clearer shape.</text>
  <text x="88" y="1288" font-size="38" font-weight="800" fill="#0f172a" class="label">A project should not reintroduce itself every run.</text>
</svg>